<svg width="32" height="32" viewBox="0 0 32 32" fill="none" xmlns="http://www.w3.org/2000/svg">
<path d="M28.3621 8.4241C28.6518 8.1345 28.9932 8 29.4276 8C29.8621 8 30.2242 8.1448 30.5345 8.4551C31.1552 9.0758 31.1552 10.0069 30.5345 10.6276L16.7552 24.3655C16.6517 24.4793 16.5276 24.5517 16.4138 24.5931C16.2793 24.6448 16.1345 24.6655 15.9793 24.6655C15.8138 24.6655 15.669 24.6448 15.5345 24.5931C15.4207 24.5517 15.3069 24.4793 15.1931 24.3655L1.4138 10.5862C1.1345 10.3069 1 9.9655 1 9.5517C1 9.1379 1.1448 8.7758 1.4552 8.4551C1.7655 8.1448 2.1276 8 2.5414 8C2.9552 8 3.3172 8.1448 3.6276 8.4551L15.9793 20.8069L28.3621 8.4241Z" fill="black"/>
</svg>
