<svg width="32" height="32" viewBox="0 0 32 32" fill="none" xmlns="http://www.w3.org/2000/svg">
<path fill-rule="evenodd" clip-rule="evenodd" d="M25.8127 11.9238C25.1184 12.618 23.9928 12.618 23.2985 11.9238L15.6666 4.29194L8.0348 11.9238C7.34059 12.618 6.21489 12.618 5.52067 11.9238C4.82644 11.2295 4.82644 10.1039 5.52067 9.40961L14.4096 0.520695C15.1038 -0.173565 16.2295 -0.173565 16.9237 0.520695L25.8127 9.40961C26.5069 10.1039 26.5069 11.2295 25.8127 11.9238Z" fill="black"/>
<path fill-rule="evenodd" clip-rule="evenodd" d="M25.8127 20.0763C26.5069 20.7706 26.5069 21.8962 25.8127 22.5904L16.9237 31.4794C16.2295 32.1735 15.1038 32.1735 14.4096 31.4794L5.52067 22.5904C4.82644 21.8962 4.82644 20.7706 5.52067 20.0763C6.21489 19.382 7.34059 19.382 8.0348 20.0763L15.6666 27.7082L23.2985 20.0763C23.9928 19.382 25.1184 19.382 25.8127 20.0763Z" fill="black"/>
</svg>
