<svg viewBox="0 0 32 32" fill="none" xmlns="http://www.w3.org/2000/svg">
<path d="M3.63793 24.2414C3.34828 24.531 3.0069 24.6655 2.57242 24.6655C2.13793 24.6655 1.77587 24.5207 1.46552 24.2104C0.844828 23.5897 0.844828 22.6586 1.46552 22.0379L15.2448 8.3C15.3483 8.1862 15.4724 8.1138 15.5862 8.0724C15.7207 8.0207 15.8655 8 16.0207 8C16.1862 8 16.331 8.0207 16.4655 8.0724C16.5793 8.1138 16.6931 8.1862 16.8069 8.3L30.5862 22.0793C30.8655 22.3586 31 22.7 31 23.1138C31 23.5276 30.8552 23.8897 30.5448 24.2104C30.2345 24.5207 29.8724 24.6655 29.4586 24.6655C29.0448 24.6655 28.6828 24.5207 28.3724 24.2104L16.0207 11.8586L3.63793 24.2414Z" fill="currentColor"/>
</svg>
