<svg width="32" height="32" viewBox="0 0 32 32" fill="none" xmlns="http://www.w3.org/2000/svg">
<path d="M24.2414 28.3621C24.531 28.6517 24.6655 28.9931 24.6655 29.4276C24.6655 29.8621 24.5207 30.2241 24.2103 30.5345C23.5897 31.1552 22.6586 31.1552 22.0379 30.5345L8.3 16.7552C8.18621 16.6517 8.11379 16.5276 8.07241 16.4138C8.02069 16.2793 8 16.1345 8 15.9793C8 15.8138 8.02069 15.669 8.07241 15.5345C8.11379 15.4207 8.18621 15.3069 8.3 15.1931L22.0793 1.41379C22.3586 1.13448 22.7 1 23.1138 1C23.5276 1 23.8897 1.14483 24.2103 1.45517C24.5207 1.76552 24.6655 2.12759 24.6655 2.54138C24.6655 2.95517 24.5207 3.31724 24.2103 3.62759L11.8586 15.9793L24.2414 28.3621Z" fill="black"/>
</svg>
