<svg viewBox="0 0 32 32" fill="none" xmlns="http://www.w3.org/2000/svg">
<path d="M30.4071 23.4071C30.0119 23.8024 29.5439 24 29.0032 24C28.4635 24 27.996 23.8024 27.6008 23.4071L16.0198 11.8261L4.39921 23.4466C4.0303 23.8155 3.56917 24 3.01581 24C2.46245 24 1.98814 23.8024 1.59289 23.4071C1.19763 23.0119 1 22.5439 1 22.0032C1 21.4635 1.19763 20.996 1.59289 20.6008L14.913 7.32016C15.0711 7.16205 15.2424 7.0498 15.4269 6.9834C15.6113 6.91805 15.809 6.88538 16.0198 6.88538C16.2306 6.88538 16.4282 6.91805 16.6126 6.9834C16.7971 7.0498 16.9684 7.16205 17.1265 7.32016L30.4466 20.6403C30.8155 21.0092 31 21.4635 31 22.0032C31 22.5439 30.8024 23.0119 30.4071 23.4071Z" fill="currentColor"/>
</svg>
