<svg width="32" height="32" viewBox="0 0 32 32" fill="none" xmlns="http://www.w3.org/2000/svg">
<path d="M8.42414 3.63793C8.13448 3.34828 8 3.0069 8 2.57242C8 2.13793 8.14483 1.77586 8.45517 1.46552C9.07586 0.844828 10.0069 0.844828 10.6276 1.46552L24.3655 15.2448C24.4793 15.3483 24.5517 15.4724 24.5931 15.5862C24.6448 15.7207 24.6655 15.8655 24.6655 16.0207C24.6655 16.1862 24.6448 16.331 24.5931 16.4655C24.5517 16.5793 24.4793 16.6931 24.3655 16.8069L10.5862 30.5862C10.3069 30.8655 9.96552 31 9.55173 31C9.13793 31 8.77586 30.8552 8.45517 30.5448C8.14483 30.2345 8 29.8724 8 29.4586C8 29.0448 8.14483 28.6828 8.45517 28.3724L20.8069 16.0207L8.42414 3.63793Z" fill="black"/>
</svg>
