<svg width="32" height="32" viewBox="0 0 32 32" fill="none" xmlns="http://www.w3.org/2000/svg">
<path d="M7.59289 30.4071C7.19763 30.0119 7 29.5439 7 29.0032C7 28.4635 7.19763 27.996 7.59289 27.6008L19.1739 16.0198L7.55336 4.39921C7.18445 4.0303 7 3.56917 7 3.01581C7 2.46245 7.19763 1.98814 7.59289 1.59289C7.98814 1.19763 8.45613 1 8.99684 1C9.5365 1 10.004 1.19763 10.3992 1.59289L23.6798 14.913C23.8379 15.0711 23.9502 15.2424 24.0166 15.4269C24.0819 15.6113 24.1146 15.809 24.1146 16.0198C24.1146 16.2306 24.0819 16.4282 24.0166 16.6126C23.9502 16.7971 23.8379 16.9684 23.6798 17.1265L10.3597 30.4466C9.99078 30.8155 9.5365 31 8.99684 31C8.45613 31 7.98814 30.8024 7.59289 30.4071Z" fill="black"/>
</svg>
