<svg width="32" height="32" viewBox="0 0 32 32" fill="none" xmlns="http://www.w3.org/2000/svg">
<path d="M1.59289 7.59289C1.98814 7.19763 2.45613 7 2.99684 7C3.5365 7 4.00395 7.19763 4.39921 7.59289L15.9802 19.1739L27.6008 7.55336C27.9697 7.18445 28.4308 7 28.9842 7C29.5375 7 30.0119 7.19763 30.4071 7.59289C30.8024 7.98814 31 8.45613 31 8.99684C31 9.5365 30.8024 10.004 30.4071 10.3992L17.087 23.6798C16.9289 23.8379 16.7576 23.9502 16.5731 24.0166C16.3887 24.0819 16.191 24.1146 15.9802 24.1146C15.7694 24.1146 15.5718 24.0819 15.3874 24.0166C15.2029 23.9502 15.0316 23.8379 14.8735 23.6798L1.55336 10.3597C1.18445 9.99078 1 9.5365 1 8.99684C1 8.45613 1.19763 7.98814 1.59289 7.59289Z" fill="black"/>
</svg>
