<svg width="32" height="32" viewBox="0 0 32 32" fill="none" xmlns="http://www.w3.org/2000/svg">
<path d="M23.4071 1.59289C23.8024 1.98814 24 2.45613 24 2.99684C24 3.5365 23.8024 4.00395 23.4071 4.39921L11.8261 15.9802L23.4466 27.6008C23.8155 27.9697 24 28.4308 24 28.9842C24 29.5375 23.8024 30.0119 23.4071 30.4071C23.0119 30.8024 22.5439 31 22.0032 31C21.4635 31 20.996 30.8024 20.6008 30.4071L7.32016 17.087C7.16206 16.9289 7.0498 16.7576 6.9834 16.5731C6.91805 16.3887 6.88538 16.191 6.88538 15.9802C6.88538 15.7694 6.91805 15.5718 6.9834 15.3874C7.0498 15.2029 7.16206 15.0316 7.32016 14.8735L20.6403 1.55336C21.0092 1.18445 21.4635 1 22.0032 1C22.5439 1 23.0119 1.19763 23.4071 1.59289Z" fill="black"/>
</svg>
