<svg viewBox="0 0 32 32" fill="none" xmlns="http://www.w3.org/2000/svg">
<path d="M27.4417 4.55833C27.0841 4.20083 26.5991 4 26.0935 4C25.5878 4 25.1029 4.20083 24.7453 4.55833L16 13.3036L7.25475 4.55833C6.89714 4.20083 6.41219 4 5.90654 4C5.40088 4 4.91593 4.20083 4.55833 4.55833C4.20083 4.91593 4 5.40088 4 5.90654C4 6.41219 4.20083 6.89714 4.55833 7.25475L13.3036 16L4.55833 24.7453C4.20083 25.1029 4 25.5878 4 26.0935C4 26.5991 4.20083 27.0841 4.55833 27.4417C4.91593 27.7992 5.40088 28 5.90654 28C6.41219 28 6.89714 27.7992 7.25475 27.4417L16 18.6964L24.7453 27.4417C25.1029 27.7992 25.5878 28 26.0935 28C26.5991 28 27.0841 27.7992 27.4417 27.4417C27.7992 27.0841 28 26.5991 28 26.0935C28 25.5878 27.7992 25.1029 27.4417 24.7453L18.6964 16L27.4417 7.25475C27.7992 6.89714 28 6.41219 28 5.90654C28 5.40088 27.7992 4.91593 27.4417 4.55833Z" fill="currentColor"/>
</svg>
