<svg   viewBox="0 0 32 32" fill="none" xmlns="http://www.w3.org/2000/svg">
<path d="M27.7072 4.29279C27.5197 4.10532 27.2654 4 27.0002 4C26.735 4 26.4807 4.10532 26.2932 4.29279L16 14.586L5.70682 4.29279C5.51929 4.10532 5.26497 4 4.9998 4C4.73464 4 4.48032 4.10532 4.29279 4.29279C4.10532 4.48032 4 4.73464 4 4.9998C4 5.26497 4.10532 5.51929 4.29279 5.70682L14.586 16L4.29279 26.2932C4.10532 26.4807 4 26.735 4 27.0002C4 27.2654 4.10532 27.5197 4.29279 27.7072C4.48032 27.8947 4.73464 28 4.9998 28C5.26497 28 5.51929 27.8947 5.70682 27.7072L16 17.414L26.2932 27.7072C26.4807 27.8947 26.735 28 27.0002 28C27.2654 28 27.5197 27.8947 27.7072 27.7072C27.8947 27.5197 28 27.2654 28 27.0002C28 26.735 27.8947 26.4807 27.7072 26.2932L17.414 16L27.7072 5.70682C27.8947 5.51929 28 5.26497 28 4.9998C28 4.73464 27.8947 4.48032 27.7072 4.29279Z" fill="currentColor"/>
</svg>
