<svg viewBox="0 0 32 32" fill="none" xmlns="http://www.w3.org/2000/svg">
<g clip-path="url(#clip0_12_803)">
<path d="M31.2556 0.744437C30.7788 0.267775 30.1322 0 29.4579 0C28.7837 0 28.1371 0.267775 27.6603 0.744437L16 12.4048L4.33967 0.744437C3.86286 0.267775 3.21626 0 2.54205 0C1.86785 0 1.22124 0.267775 0.744437 0.744437C0.267775 1.22124 0 1.86785 0 2.54205C0 3.21626 0.267775 3.86286 0.744437 4.33967L12.4048 16L0.744437 27.6603C0.267775 28.1371 0 28.7837 0 29.4579C0 30.1322 0.267775 30.7788 0.744437 31.2556C1.22124 31.7322 1.86785 32 2.54205 32C3.21626 32 3.86286 31.7322 4.33967 31.2556L16 19.5952L27.6603 31.2556C28.1371 31.7322 28.7837 32 29.4579 32C30.1322 32 30.7788 31.7322 31.2556 31.2556C31.7322 30.7788 32 30.1322 32 29.4579C32 28.7837 31.7322 28.1371 31.2556 27.6603L19.5952 16L31.2556 4.33967C31.7322 3.86286 32 3.21626 32 2.54205C32 1.86785 31.7322 1.22124 31.2556 0.744437Z" fill="currentColor"/>
</g>
<defs>
<clipPath id="clip0_12_803">
<rect width="32" height="32" fill="white"/>
</clipPath>
</defs>
</svg>
