<svg viewBox="0 0 32 32" fill="none" xmlns="http://www.w3.org/2000/svg">
<g clip-path="url(#clip0_9_2020)">
<path d="M29.3333 13.3333H18.6667V2.66667C18.6667 1.95942 18.3857 1.28115 17.8856 0.781049C17.3855 0.280952 16.7072 0 16 0C15.2928 0 14.6145 0.280952 14.1144 0.781049C13.6143 1.28115 13.3333 1.95942 13.3333 2.66667V13.3333H2.66667C1.95942 13.3333 1.28115 13.6143 0.781049 14.1144C0.280952 14.6145 0 15.2928 0 16C0 16.7072 0.280952 17.3855 0.781049 17.8856C1.28115 18.3857 1.95942 18.6667 2.66667 18.6667H13.3333V29.3333C13.3333 30.0406 13.6143 30.7189 14.1144 31.219C14.6145 31.7191 15.2928 32 16 32C16.7072 32 17.3855 31.7191 17.8856 31.219C18.3857 30.7189 18.6667 30.0406 18.6667 29.3333V18.6667H29.3333C30.0406 18.6667 30.7189 18.3857 31.219 17.8856C31.7191 17.3855 32 16.7072 32 16C32 15.2928 31.7191 14.6145 31.219 14.1144C30.7189 13.6143 30.0406 13.3333 29.3333 13.3333Z" fill="currentColor"/>
</g>
<defs>
<clipPath id="clip0_9_2020">
<rect width="32" height="32" fill="white"/>
</clipPath>
</defs>
</svg>
