<svg   viewBox="0 0 32 32" fill="none" xmlns="http://www.w3.org/2000/svg">
<path d="M28.8333 14.8333H17.1667V3.16667C17.1667 2.85725 17.0437 2.5605 16.825 2.34171C16.6062 2.12292 16.3094 2 16 2C15.6906 2 15.3938 2.12292 15.175 2.34171C14.9562 2.5605 14.8333 2.85725 14.8333 3.16667V14.8333H3.16667C2.85725 14.8333 2.5605 14.9562 2.34171 15.175C2.12292 15.3938 2 15.6906 2 16C2 16.3094 2.12292 16.6062 2.34171 16.825C2.5605 17.0437 2.85725 17.1667 3.16667 17.1667H14.8333V28.8333C14.8333 29.1428 14.9562 29.4395 15.175 29.6583C15.3938 29.8771 15.6906 30 16 30C16.3094 30 16.6062 29.8771 16.825 29.6583C17.0437 29.4395 17.1667 29.1428 17.1667 28.8333V17.1667H28.8333C29.1428 17.1667 29.4395 17.0437 29.6583 16.825C29.8771 16.6062 30 16.3094 30 16C30 15.6906 29.8771 15.3938 29.6583 15.175C29.4395 14.9562 29.1428 14.8333 28.8333 14.8333Z" fill="currentColor"/>
</svg>
