<svg   viewBox="0 0 32 32" fill="none" xmlns="http://www.w3.org/2000/svg">
<path d="M27.6667 13.6667H18.3333V4.33333C18.3333 3.71449 18.0875 3.121 17.6499 2.68342C17.2123 2.24583 16.6188 2 16 2C15.3812 2 14.7877 2.24583 14.3501 2.68342C13.9125 3.121 13.6667 3.71449 13.6667 4.33333V13.6667H4.33333C3.71449 13.6667 3.121 13.9125 2.68342 14.3501C2.24583 14.7877 2 15.3812 2 16C2 16.6188 2.24583 17.2123 2.68342 17.6499C3.121 18.0875 3.71449 18.3333 4.33333 18.3333H13.6667V27.6667C13.6667 28.2855 13.9125 28.879 14.3501 29.3166C14.7877 29.7542 15.3812 30 16 30C16.6188 30 17.2123 29.7542 17.6499 29.3166C18.0875 28.879 18.3333 28.2855 18.3333 27.6667V18.3333H27.6667C28.2855 18.3333 28.879 18.0875 29.3166 17.6499C29.7542 17.2123 30 16.6188 30 16C30 15.3812 29.7542 14.7877 29.3166 14.3501C28.879 13.9125 28.2855 13.6667 27.6667 13.6667Z" fill="currentColor"/>
</svg>
