<svg viewBox="0 0 32 32" fill="none" xmlns="http://www.w3.org/2000/svg">
<path d="M30.6667 14.6667H17.3333V1.33333C17.3333 0.979711 17.1929 0.640573 16.9428 0.390524C16.6928 0.140476 16.3536 0 16 0C15.6464 0 15.3072 0.140476 15.0572 0.390524C14.8071 0.640573 14.6667 0.979711 14.6667 1.33333V14.6667H1.33333C0.979711 14.6667 0.640573 14.8071 0.390524 15.0572C0.140476 15.3072 0 15.6464 0 16C0 16.3536 0.140476 16.6928 0.390524 16.9428C0.640573 17.1929 0.979711 17.3333 1.33333 17.3333H14.6667V30.6667C14.6667 31.0203 14.8071 31.3594 15.0572 31.6095C15.3072 31.8595 15.6464 32 16 32C16.3536 32 16.6928 31.8595 16.9428 31.6095C17.1929 31.3594 17.3333 31.0203 17.3333 30.6667V17.3333H30.6667C31.0203 17.3333 31.3594 17.1929 31.6095 16.9428C31.8595 16.6928 32 16.3536 32 16C32 15.6464 31.8595 15.3072 31.6095 15.0572C31.3594 14.8071 31.0203 14.6667 30.6667 14.6667Z" fill="currentColor"/>
</svg>
