<svg width="32" height="32" viewBox="0 0 32 32" fill="none" xmlns="http://www.w3.org/2000/svg">
<g clip-path="url(#clip0_134_5187)">
<path d="M10.6667 16H8C6.52933 16 5.33333 17.196 5.33333 18.6667V21.3333C5.33333 22.804 6.52933 24 8 24H10.6667C12.1373 24 13.3333 22.804 13.3333 21.3333V18.6667C13.3333 17.196 12.1373 16 10.6667 16ZM8 21.3333V18.6667H10.6667V21.3333H8ZM25.3333 2.66667H24V1.33333C24 0.597333 23.404 0 22.6667 0C21.9293 0 21.3333 0.597333 21.3333 1.33333V2.66667H10.6667V1.33333C10.6667 0.597333 10.0707 0 9.33333 0C8.596 0 8 0.597333 8 1.33333V2.66667H6.66667C2.99067 2.66667 0 5.65733 0 9.33333V25.3333C0 29.0093 2.99067 32 6.66667 32H25.3333C29.0093 32 32 29.0093 32 25.3333V9.33333C32 5.65733 29.0093 2.66667 25.3333 2.66667ZM6.66667 5.33333H25.3333C27.5387 5.33333 29.3333 7.128 29.3333 9.33333V10.6667H2.66667V9.33333C2.66667 7.128 4.46133 5.33333 6.66667 5.33333ZM25.3333 29.3333H6.66667C4.46133 29.3333 2.66667 27.5387 2.66667 25.3333V13.3333H29.3333V25.3333C29.3333 27.5387 27.5387 29.3333 25.3333 29.3333Z" fill="black"/>
</g>
<defs>
<clipPath id="clip0_134_5187">
<rect width="32" height="32" fill="white"/>
</clipPath>
</defs>
</svg>
