<svg width="32" height="32" viewBox="0 0 32 32" fill="none" xmlns="http://www.w3.org/2000/svg">
<g clip-path="url(#clip0_11_4411)">
<path d="M31.6093 20.3907C31.3593 20.1407 31.0202 20.0003 30.6667 20.0003C30.3131 20.0003 29.974 20.1407 29.724 20.3907L26 24.1147L22.276 20.3907C22.0245 20.1478 21.6877 20.0134 21.3381 20.0164C20.9885 20.0195 20.6541 20.1597 20.4069 20.4069C20.1597 20.6541 20.0195 20.9885 20.0164 21.3381C20.0134 21.6877 20.1478 22.0245 20.3907 22.276L24.1147 26L20.3907 29.724C20.2633 29.847 20.1617 29.9941 20.0919 30.1568C20.022 30.3195 19.9852 30.4944 19.9837 30.6715C19.9821 30.8485 20.0159 31.0241 20.0829 31.1879C20.1499 31.3518 20.2489 31.5007 20.3741 31.6259C20.4993 31.751 20.6482 31.8501 20.8121 31.9171C20.9759 31.9841 21.1515 32.0179 21.3285 32.0163C21.5056 32.0148 21.6805 31.978 21.8432 31.9081C22.0059 31.8383 22.153 31.7367 22.276 31.6093L26 27.8853L29.724 31.6093C29.9755 31.8522 30.3123 31.9866 30.6619 31.9836C31.0115 31.9805 31.3459 31.8403 31.5931 31.5931C31.8403 31.3459 31.9805 31.0115 31.9836 30.6619C31.9866 30.3123 31.8522 29.9755 31.6093 29.724L27.8853 26L31.6093 22.276C31.8593 22.026 31.9997 21.6869 31.9997 21.3333C31.9997 20.9798 31.8593 20.6407 31.6093 20.3907Z" fill="black"/>
<path d="M16 29.3333C13.3629 29.3333 10.7851 28.5514 8.5924 27.0863C6.39975 25.6212 4.69078 23.5388 3.68161 21.1025C2.67245 18.6661 2.4084 15.9852 2.92287 13.3988C3.43734 10.8124 4.70722 8.43662 6.57192 6.57192C8.43662 4.70722 10.8124 3.43734 13.3988 2.92287C15.9852 2.4084 18.6661 2.67245 21.1025 3.68161C23.5388 4.69078 25.6212 6.39975 27.0863 8.5924C28.5514 10.7851 29.3333 13.3629 29.3333 16C29.3333 16.3536 29.4738 16.6928 29.7239 16.9428C29.9739 17.1929 30.3131 17.3333 30.6667 17.3333C31.0203 17.3333 31.3594 17.1929 31.6095 16.9428C31.8595 16.6928 32 16.3536 32 16C32 12.8355 31.0616 9.74207 29.3035 7.11088C27.5454 4.4797 25.0466 2.42894 22.1229 1.21793C19.1993 0.00693262 15.9823 -0.309921 12.8786 0.307443C9.77487 0.924806 6.92394 2.44866 4.6863 4.6863C2.44866 6.92394 0.924806 9.77487 0.307443 12.8786C-0.309921 15.9823 0.00693262 19.1993 1.21793 22.1229C2.42894 25.0466 4.4797 27.5454 7.11088 29.3035C9.74207 31.0616 12.8355 32 16 32C16.3536 32 16.6928 31.8595 16.9428 31.6095C17.1929 31.3594 17.3333 31.0203 17.3333 30.6667C17.3333 30.3131 17.1929 29.9739 16.9428 29.7239C16.6928 29.4738 16.3536 29.3333 16 29.3333Z" fill="black"/>
<path d="M16 8C15.6464 8 15.3072 8.14048 15.0572 8.39052C14.8071 8.64057 14.6667 8.97971 14.6667 9.33333V15.448L11.0573 19.0573C10.93 19.1803 10.8284 19.3275 10.7585 19.4901C10.6887 19.6528 10.6519 19.8278 10.6503 20.0048C10.6488 20.1818 10.6825 20.3574 10.7496 20.5213C10.8166 20.6851 10.9156 20.834 11.0408 20.9592C11.166 21.0844 11.3149 21.1834 11.4787 21.2504C11.6426 21.3175 11.8182 21.3512 11.9952 21.3497C12.1722 21.3481 12.3472 21.3113 12.5099 21.2415C12.6725 21.1716 12.8197 21.07 12.9427 20.9427L16.9427 16.9427C17.1927 16.6927 17.3333 16.3536 17.3333 16V9.33333C17.3333 8.97971 17.1929 8.64057 16.9428 8.39052C16.6928 8.14048 16.3536 8 16 8Z" fill="black"/>
</g>
<defs>
<clipPath id="clip0_11_4411">
<rect width="32" height="32" fill="white"/>
</clipPath>
</defs>
</svg>
