<svg viewBox="0 0 32 32" fill="none" xmlns="http://www.w3.org/2000/svg">
<path d="M28 5.33333H23.8667C23.5572 3.82855 22.7384 2.47646 21.5484 1.50496C20.3583 0.533453 18.8696 0.00193937 17.3334 0H14.6667C13.1304 0.00193937 11.6418 0.533453 10.4517 1.50496C9.26159 2.47646 8.44282 3.82855 8.13335 5.33333H4.00002C3.6464 5.33333 3.30726 5.47381 3.05721 5.72386C2.80716 5.97391 2.66669 6.31305 2.66669 6.66667C2.66669 7.02029 2.80716 7.35943 3.05721 7.60948C3.30726 7.85952 3.6464 8 4.00002 8H5.33335V25.3333C5.33547 27.1008 6.03853 28.7953 7.28831 30.045C8.5381 31.2948 10.2326 31.9979 12 32H20C21.7675 31.9979 23.4619 31.2948 24.7117 30.045C25.9615 28.7953 26.6646 27.1008 26.6667 25.3333V8H28C28.3536 8 28.6928 7.85952 28.9428 7.60948C29.1929 7.35943 29.3334 7.02029 29.3334 6.66667C29.3334 6.31305 29.1929 5.97391 28.9428 5.72386C28.6928 5.47381 28.3536 5.33333 28 5.33333ZM14.6667 2.66667H17.3334C18.1604 2.66768 18.9669 2.9245 19.6422 3.40192C20.3175 3.87935 20.8286 4.55399 21.1054 5.33333H10.8947C11.1715 4.55399 11.6826 3.87935 12.3579 3.40192C13.0332 2.9245 13.8397 2.66768 14.6667 2.66667ZM24 25.3333C24 26.3942 23.5786 27.4116 22.8284 28.1618C22.0783 28.9119 21.0609 29.3333 20 29.3333H12C10.9392 29.3333 9.92174 28.9119 9.17159 28.1618C8.42145 27.4116 8.00002 26.3942 8.00002 25.3333V8H24V25.3333Z" fill="currentColor"/>
<path d="M13.3334 24C13.687 24 14.0261 23.8595 14.2762 23.6095C14.5262 23.3594 14.6667 23.0203 14.6667 22.6667V14.6667C14.6667 14.313 14.5262 13.9739 14.2762 13.7239C14.0261 13.4738 13.687 13.3333 13.3334 13.3333C12.9797 13.3333 12.6406 13.4738 12.3905 13.7239C12.1405 13.9739 12 14.313 12 14.6667V22.6667C12 23.0203 12.1405 23.3594 12.3905 23.6095C12.6406 23.8595 12.9797 24 13.3334 24Z" fill="currentColor"/>
<path d="M18.6667 24C19.0203 24 19.3594 23.8595 19.6095 23.6095C19.8595 23.3594 20 23.0203 20 22.6667V14.6667C20 14.313 19.8595 13.9739 19.6095 13.7239C19.3594 13.4738 19.0203 13.3333 18.6667 13.3333C18.3131 13.3333 17.9739 13.4738 17.7239 13.7239C17.4738 13.9739 17.3334 14.313 17.3334 14.6667V22.6667C17.3334 23.0203 17.4738 23.3594 17.7239 23.6095C17.9739 23.8595 18.3131 24 18.6667 24Z" fill="currentColor"/>
</svg>
