<svg viewBox="0 0 32 32" fill="none" xmlns="http://www.w3.org/2000/svg">
<path d="M8.81045 31.2824L16.0316 26.4489L23.3693 31.2242C24.3302 31.8357 25.5531 31.8065 26.4558 31.1077C27.3584 30.4089 27.7078 29.2442 27.3584 28.1668L24.7378 20.2177L31.0564 15.0639C31.9008 14.3359 32.2211 13.1712 31.8426 12.0938C31.464 11.0165 30.4449 10.3468 29.3384 10.3468H21.3311L18.5067 2.74706C18.1281 1.69883 17.109 1 16.0025 1C14.8961 1 13.8769 1.69883 13.4984 2.74706L10.674 10.3468H2.66661C1.56014 10.3468 0.541022 11.0456 0.162492 12.0938C-0.216038 13.1421 0.0751401 14.3359 0.948671 15.0347L7.29633 20.1886L4.79221 28.2251C4.4428 29.3024 4.82133 30.4962 5.72398 31.1659C6.18986 31.5154 6.77221 31.6901 7.32545 31.6901C7.84957 31.6901 8.37369 31.5445 8.81045 31.2533V31.2824Z" fill="currentColor"/>
</svg>
